<?xml version="1.0" encoding="utf-8"?>
<svg version="1.1" baseProfile="tiny" x="0px" y="0px" viewBox="0 0 40 40" xmlns="http://www.w3.org/2000/svg">
  <g id="bg">
    <path d="M4.4,8.2C3,9,2,10.9,2,12.4v15.3C2,29.2,3,31,4.4,31.8l13.2,7.6c1.3,0.8,3.5,0.8,4.8,0l13.2-7.6 c1.3-0.8,2.4-2.6,2.4-4.2V12.4c0-1.5-1.1-3.4-2.4-4.2L22.4,0.6c-1.3-0.8-3.5-0.8-4.8,0L4.4,8.2z" style="fill: rgb(188, 188, 188);"/>
  </g>
  <g id="shape">
    <path fill="#FFFFFF" d="M29.3,11.7l-1.4-1.4c-1.6-1.6-4.1-1.6-5.7,0l-1.4,1.4l-0.7,0.7l-8.9,8.9l-0.8,4.8l0,0l-0.3,1.7 c-0.2,1.1,0.6,1.8,1.6,1.6l1.7-0.3l0,0l4.8-0.8l8.9-8.9l0.7-0.7l1.4-1.4C30.8,15.8,30.8,13.2,29.3,11.7z M14.7,23.4 c-0.4,0.4-1,0.4-1.4,0c-0.4-0.4-0.4-1,0-1.4l8.2-8.2c0.4-0.4,1-0.4,1.4,0c0.4,0.4,0.4,1,0,1.4L14.7,23.4z M17.5,26.2 c-0.4,0.4-1,0.4-1.4,0c-0.4-0.4-0.4-1,0-1.4l8.2-8.2c0.4-0.4,1-0.4,1.4,0c0.4,0.4,0.4,1,0,1.4L17.5,26.2z"/>
  </g>
  <g id="number_copy"/>
</svg>