<svg width="22" height="22" viewBox="0 0 22 22" fill="none" xmlns="http://www.w3.org/2000/svg">
<path fill-rule="evenodd" clip-rule="evenodd" d="M1.51239 9.84883C7.41795 7.27585 11.3559 5.57959 13.3263 4.76003C18.9521 2.42005 20.1211 2.01357 20.883 2.00014C21.0506 1.99719 21.4253 2.03872 21.668 2.23567C21.873 2.40197 21.9294 2.62661 21.9563 2.78428C21.9833 2.94195 22.0169 3.30112 21.9902 3.58177C21.6854 6.78504 20.3662 14.5585 19.6951 18.1462C19.4111 19.6643 18.852 20.1733 18.3107 20.2231C17.1343 20.3314 16.2409 19.4457 15.1015 18.6988C13.3186 17.53 12.3113 16.8025 10.5807 15.662C8.58058 14.3439 9.87715 13.6195 11.017 12.4356C11.3153 12.1258 16.4986 7.41117 16.5989 6.98348C16.6115 6.92999 16.6231 6.7306 16.5046 6.62532C16.3862 6.52004 16.2114 6.55604 16.0852 6.58467C15.9064 6.62526 13.0581 8.50789 7.54035 12.2326C6.73187 12.7877 5.99958 13.0582 5.34347 13.044C4.62016 13.0284 3.2288 12.6351 2.19447 12.2988C0.925826 11.8865 -0.0824703 11.6684 0.00532971 10.9681C0.0510613 10.6033 0.553413 10.2302 1.51239 9.84883Z" fill="white"/>
</svg>
