<?xml version="1.0"?>
<svg width="40" height="40" xmlns="http://www.w3.org/2000/svg" xmlns:svg="http://www.w3.org/2000/svg" version="1.1" xml:space="preserve">
 <g class="layer">
  <title>Layer 1</title>
  <g id="bg">
   <path d="m20,0l-18,4c0,0 0,16 0,22c0,10 18,13 18,14c0,-1 18,-4 18,-14c0,-6 0,-22 0,-22l-18,-4z" fill="url(#svg_14)" id="svg_1"/>
  </g>
  <g id="shape">
   <g id="svg_2">
    <polygon fill="#FFFFFF" id="svg_3" points="11.210808753967285,22.14324188232422 9.76756477355957,21.06949806213379 -2.5000016689300537,21.06949806213379 -2.5000016689300537,23.455596923828125 10.849998474121094,23.455596923828125 "/>
    <polygon fill="#FFFFFF" id="svg_4" points="29.49188804626465,22.14324188232422 29.852699279785156,23.455596923828125 41.999996185302734,23.455596923828125 41.999996185302734,21.06949806213379 30.935131072998047,21.06949806213379 "/>
   </g>
   <g id="svg_5">
    <polygon fill="#FFFFFF" id="svg_6" points="31.41621208190918,28.227798461914062 41.999996185302734,28.227798461914062 41.999996185302734,25.841697692871094 30.694591522216797,25.841697692871094 "/>
    <polygon fill="#FFFFFF" id="svg_7" points="10.008105278015137,25.841697692871094 -2.5000016689300537,25.841697692871094 -2.5000016689300537,28.227798461914062 9.286484718322754,28.227798461914062 "/>
   </g>
   <g id="svg_8">
    <polygon fill="#FFFFFF" id="svg_9" points="34.30270004272461,18.683395385742188 41.999996185302734,18.683395385742188 41.999996185302734,16.29729652404785 37.54999923706055,16.29729652404785 "/>
    <polygon fill="#FFFFFF" id="svg_10" points="3.152700662612915,16.29729652404785 -2.5000016689300537,16.29729652404785 -2.5000016689300537,18.683395385742188 6.399997711181641,18.683395385742188 "/>
   </g>
   <path d="m36.83,13.91l-12.63,0l-3.85,-11.81l-3.85,11.81l-12.63,0l10.1,7.28l-3.85,11.81l10.1,-7.28l10.1,7.28l-3.85,-11.81l10.34,-7.28z" fill="#FFFFFF" id="svg_11"/>
  </g>
 </g>
 <defs>
  <radialGradient cx="0.5" cy="0.5" id="svg_14" r="0.6" spreadMethod="pad">
   <stop id="jq_stop_9892" offset="0.23" stop-color="#ff0000" stop-opacity="1"/>
   <stop id="jq_stop_3733" offset="1" stop-color="#a100e9" stop-opacity="1"/>
  </radialGradient>
 </defs>
</svg>