<svg width="40" height="40" xmlns="http://www.w3.org/2000/svg">

 <g>
  <title>background</title>
  <rect fill="none" id="canvas_background" height="402" width="582" y="-1" x="-1"/>
 </g>
 <g>
  <title>Layer 1</title>
  <g id="bg">
   <path id="svg_1" d="m20,0l-18,4c0,0 0,16 0,22c0,10 18,13 18,14c0,-1 18,-4 18,-14c0,-6 0,-22 0,-22l-18,-4z" fill="#f20085"/>
  </g>
  <g id="shape">
   <path id="svg_2" d="m28.4,18.8l5.3,-3.8l-6.5,0l-1.3,-4l-3.9,0l-2,-5.9l-1.9,5.9l-3.9,0l-1.3,4l-6.6,0l5.3,3.8l-1.1,3.3l3.2,2.3l-2.2,6.6l5.6,-4.1l2.8,2l2.8,-2l5.6,4.1l-2.2,-6.6l3.2,-2.3l-0.9,-3.3zm-5.5,1.6l1.8,5.5l-4.7,-3.4l-4.6,3.4l1.8,-5.5l-4.7,-3.4l5.7,0l1.8,-5.5l1.8,5.5l5.7,0l-4.6,3.4z" fill="#FFFFFF"/>
  </g>
 </g>
</svg>